<svg width="422" height="904" viewBox="0 0 422 904" fill="none" xmlns="http://www.w3.org/2000/svg">
<g clip-path="url(#clip0)">
<g filter="url(#filter0_d)">
<path d="M418 0H4V896H418V0Z" fill="white"/>
<path d="M-68.17 1004H133.055C134.781 1004 136.5 1003.78 138.169 1003.33L286.406 964.122C301.088 960.238 306.255 942.052 295.808 931.029L243.211 875.531C241.012 873.211 238.288 871.452 235.269 870.401L49.4866 805.734C44.459 803.984 38.9412 804.311 34.1551 806.641L-67.2855 856.043C-73.6002 859.119 -77.8389 865.281 -78.4523 872.278L-88.0935 982.253C-89.1184 993.944 -79.905 1004 -68.17 1004Z" fill="url(#paint0_linear)"/>
<path d="M-68.17 1004H133.055C134.781 1004 136.5 1003.78 138.169 1003.33L286.406 964.122C301.088 960.238 306.255 942.052 295.808 931.029L243.211 875.531C241.012 873.211 238.288 871.452 235.269 870.401L49.4866 805.734C44.459 803.984 38.9412 804.311 34.1551 806.641L-67.2855 856.043C-73.6002 859.119 -77.8389 865.281 -78.4523 872.278L-88.0935 982.253C-89.1184 993.944 -79.905 1004 -68.17 1004Z" stroke="white"/>
<path d="M423.435 491.255C434.521 479.258 453.479 479.258 464.565 491.255L572.441 607.997C582.355 618.726 582.355 635.274 572.441 646.003L464.565 762.745C453.479 774.742 434.521 774.742 423.435 762.745L315.559 646.003C305.645 635.274 305.645 618.726 315.559 607.997L423.435 491.255Z" fill="url(#paint1_linear)"/>
<path d="M423.435 491.255C434.521 479.258 453.479 479.258 464.565 491.255L572.441 607.997C582.355 618.726 582.355 635.274 572.441 646.003L464.565 762.745C453.479 774.742 434.521 774.742 423.435 762.745L315.559 646.003C305.645 635.274 305.645 618.726 315.559 607.997L423.435 491.255Z" stroke="white"/>
<path d="M407.181 413.089C418.344 397.391 441.656 397.391 452.819 413.089L578.461 589.773C585.369 599.488 585.369 612.512 578.461 622.227L452.819 798.911C441.656 814.609 418.344 814.609 407.181 798.911L281.539 622.227C274.631 612.512 274.631 599.488 281.539 589.773L407.181 413.089Z" fill="url(#paint2_linear)"/>
<path d="M407.181 413.089C418.344 397.391 441.656 397.391 452.819 413.089L578.461 589.773C585.369 599.488 585.369 612.512 578.461 622.227L452.819 798.911C441.656 814.609 418.344 814.609 407.181 798.911L281.539 622.227C274.631 612.512 274.631 599.488 281.539 589.773L407.181 413.089Z" stroke="white"/>
<path d="M436.577 141.775C447.638 129.981 466.362 129.981 477.423 141.775L726.035 406.845C736.137 417.617 736.137 434.383 726.035 445.155L477.423 710.225C466.362 722.019 447.638 722.019 436.577 710.225L187.965 445.155C177.863 434.383 177.863 417.617 187.965 406.845L436.577 141.775Z" fill="url(#paint3_linear)"/>
<path d="M395.181 271.089C406.344 255.391 429.656 255.391 440.819 271.089L566.461 447.773C573.369 457.488 573.369 470.512 566.461 480.227L440.819 656.911C429.656 672.609 406.344 672.609 395.181 656.911L269.539 480.227C262.631 470.512 262.631 457.488 269.539 447.773L395.181 271.089Z" fill="url(#paint4_linear)"/>
<path d="M395.181 271.089C406.344 255.391 429.656 255.391 440.819 271.089L566.461 447.773C573.369 457.488 573.369 470.512 566.461 480.227L440.819 656.911C429.656 672.609 406.344 672.609 395.181 656.911L269.539 480.227C262.631 470.512 262.631 457.488 269.539 447.773L395.181 271.089Z" stroke="white"/>
<path d="M10.1502 954H129.019C131.647 954 134.25 953.482 136.678 952.476L228.501 914.412C239.812 909.723 244.293 896.063 237.956 885.586L202.295 826.622C200.464 823.595 197.864 821.108 194.758 819.414L84.3935 759.215C77.4634 755.435 68.9583 756.084 62.683 760.874L4.3209 805.413C-0.325258 808.959 -3.18795 814.359 -3.51441 820.195L-9.81863 932.883C-10.4601 944.35 -1.33461 954 10.1502 954Z" fill="url(#paint5_linear)"/>
</g>
</g>
<defs>
<filter id="filter0_d" x="-92.1714" y="0" width="829.783" height="1012" filterUnits="userSpaceOnUse" color-interpolation-filters="sRGB">
<feFlood flood-opacity="0" result="BackgroundImageFix"/>
<feColorMatrix in="SourceAlpha" type="matrix" values="0 0 0 0 0 0 0 0 0 0 0 0 0 0 0 0 0 0 127 0"/>
<feOffset dy="4"/>
<feGaussianBlur stdDeviation="2"/>
<feColorMatrix type="matrix" values="0 0 0 0 0 0 0 0 0 0 0 0 0 0 0 0 0 0 0.25 0"/>
<feBlend mode="normal" in2="BackgroundImageFix" result="effect1_dropShadow"/>
<feBlend mode="normal" in="SourceGraphic" in2="effect1_dropShadow" result="shape"/>
</filter>
<linearGradient id="paint0_linear" x1="-64.1437" y1="712.5" x2="14.8132" y2="1028.88" gradientUnits="userSpaceOnUse">
<stop stop-color="#EA7B15"/>
<stop offset="1" stop-color="#EA7B15" stop-opacity="0"/>
</linearGradient>
<linearGradient id="paint1_linear" x1="645.206" y1="627" x2="256.025" y2="627" gradientUnits="userSpaceOnUse">
<stop offset="0.363345" stop-color="#6374F3"/>
<stop offset="1" stop-color="#C4C4C4" stop-opacity="0"/>
</linearGradient>
<linearGradient id="paint2_linear" x1="650.5" y1="606" x2="224" y2="606" gradientUnits="userSpaceOnUse">
<stop offset="0.363345" stop-color="#6374F3"/>
<stop offset="1" stop-color="#C4C4C4" stop-opacity="0"/>
</linearGradient>
<linearGradient id="paint3_linear" x1="852.522" y1="426" x2="87.4875" y2="426" gradientUnits="userSpaceOnUse">
<stop offset="0.363345" stop-color="#6374F3"/>
<stop offset="1" stop-color="#C4C4C4" stop-opacity="0"/>
</linearGradient>
<linearGradient id="paint4_linear" x1="638.5" y1="464" x2="212" y2="464" gradientUnits="userSpaceOnUse">
<stop offset="0.363345" stop-color="#6374F3"/>
<stop offset="1" stop-color="#C4C4C4" stop-opacity="0"/>
</linearGradient>
<linearGradient id="paint5_linear" x1="5.5" y1="662.5" x2="119.5" y2="954" gradientUnits="userSpaceOnUse">
<stop stop-color="#EA7B15"/>
<stop offset="1" stop-color="#EA7B15" stop-opacity="0"/>
</linearGradient>
<clipPath id="clip0">
<rect width="422" height="904" fill="white"/>
</clipPath>
</defs>
</svg>
